<?xml version="1.0" standalone="no"?>
<!DOCTYPE svg PUBLIC "-//W3C//DTD SVG 20010904//EN"
 "http://www.w3.org/TR/2001/REC-SVG-20010904/DTD/svg10.dtd">
<svg version="1.0" xmlns="http://www.w3.org/2000/svg"
 width="3840.000000pt" height="3840.000000pt" viewBox="0 0 3840.000000 3840.000000"
 preserveAspectRatio="xMidYMid meet">
<metadata>
Created by potrace 1.10, written by Peter Selinger 2001-2011
</metadata>
<g transform="translate(0.000000,3840.000000) scale(0.100000,-0.100000)"
fill="#000000" stroke="none">
<path d="M3712 38380 c-7 -11 -19 -20 -26 -20 -21 0 -74 -48 -101 -89 -12 -20
-27 -60 -34 -89 -15 -70 -15 -905 -1 -933 10 -18 26 -19 490 -19 l480 0 5 23
c3 12 5 234 3 492 l-3 470 -24 40 c-31 50 -77 94 -113 107 -16 6 -28 16 -28
24 0 12 -52 14 -318 14 -306 0 -318 -1 -330 -20z"/>
<path d="M5070 38386 c0 -8 -13 -19 -29 -24 -67 -24 -123 -98 -137 -182 -13
-75 -11 -927 2 -940 7 -7 184 -9 490 -8 l479 3 0 490 c0 485 0 490 -22 528
-26 47 -78 96 -115 109 -16 6 -28 16 -28 24 0 12 -52 14 -320 14 -268 0 -320
-2 -320 -14z"/>
<path d="M6420 38386 c0 -8 -10 -18 -22 -22 -37 -11 -88 -55 -117 -99 l-26
-40 0 -495 0 -495 485 0 485 0 0 495 0 495 -26 40 c-29 44 -80 88 -116 99 -13
4 -23 14 -23 22 0 12 -49 14 -320 14 -271 0 -320 -2 -320 -14z"/>
<path d="M7770 38386 c0 -8 -12 -18 -27 -24 -38 -13 -90 -62 -116 -109 -22
-38 -22 -43 -22 -528 l0 -490 479 -3 c309 -1 483 1 490 8 13 13 15 864 2 940
-14 85 -74 162 -143 184 -13 4 -23 14 -23 22 0 12 -49 14 -320 14 -268 0 -320
-2 -320 -14z"/>
<path d="M9120 38386 c0 -8 -12 -18 -27 -24 -37 -13 -83 -57 -114 -107 l-24
-40 -3 -470 c-2 -258 0 -480 3 -492 l5 -23 480 0 c464 0 480 1 490 19 14 28
14 863 -1 933 -19 85 -80 161 -146 182 -13 4 -23 14 -23 22 0 12 -49 14 -320
14 -268 0 -320 -2 -320 -14z"/>
<path d="M2870 36759 c-19 -5 -60 -13 -90 -19 -143 -26 -354 -110 -463 -184
-21 -14 -40 -26 -43 -26 -14 0 -149 -111 -223 -183 -72 -70 -201 -225 -201
-241 0 -3 -12 -22 -26 -43 -28 -42 -124 -236 -124 -252 0 -6 -6 -25 -14 -43
-17 -39 -39 -123 -60 -231 -14 -70 -16 -470 -16 -3897 0 -3427 2 -3827 16
-3897 21 -108 43 -192 60 -231 8 -18 14 -37 14 -43 0 -24 98 -211 158 -304 89
-136 271 -318 407 -407 126 -82 292 -163 380 -184 11 -3 43 -11 70 -19 166
-47 -46 -45 4025 -45 4071 0 3859 -2 4025 45 28 8 59 16 70 19 88 21 254 102
380 185 136 89 319 271 407 406 60 93 158 280 158 304 0 6 6 25 14 43 17 39
39 123 60 231 14 70 16 470 16 3897 0 3427 -2 3827 -16 3897 -21 108 -43 192
-60 231 -8 18 -14 37 -14 43 0 6 -21 54 -46 107 -84 175 -204 338 -344 468
-56 51 -174 144 -184 144 -3 0 -22 12 -43 26 -42 28 -236 124 -252 124 -6 0
-25 6 -43 14 -39 17 -123 39 -231 60 -70 14 -468 16 -3905 15 -2131 -1 -3843
-5 -3862 -10z m7365 -848 c105 -26 161 -43 188 -57 16 -8 33 -14 38 -14 28 0
194 -114 266 -183 157 -151 245 -316 284 -537 21 -112 21 -6848 0 -6960 -39
-220 -129 -390 -286 -539 -74 -69 -236 -181 -264 -181 -5 0 -22 -6 -38 -14
-41 -20 -117 -42 -203 -57 -112 -21 -6848 -21 -6960 0 -217 39 -384 126 -531
278 -145 149 -222 302 -260 513 -21 112 -21 6848 0 6960 39 218 125 383 278
531 150 146 309 226 513 259 41 7 80 14 85 15 6 2 1547 3 3425 1 2712 -1 3425
-4 3465 -15z"/>
<path d="M3655 35255 c-27 -8 -58 -14 -67 -15 -34 0 -164 -69 -223 -117 -33
-27 -81 -75 -108 -108 -46 -58 -117 -190 -117 -220 0 -8 -7 -40 -15 -72 -13
-50 -15 -425 -15 -3081 0 -3289 -3 -3078 52 -3217 49 -123 164 -254 277 -318
73 -42 109 -55 211 -78 82 -18 175 -19 3090 -19 2915 0 3008 1 3090 19 153 35
243 82 341 180 98 98 145 188 180 341 18 82 19 175 19 3090 0 2915 -1 3008
-19 3090 -23 102 -36 138 -78 211 -64 113 -195 228 -318 277 -139 55 73 52
-3221 51 -2552 0 -3037 -3 -3079 -14z m0 -665 c41 -26 95 -94 95 -121 0 -24
-9 -28 -77 -39 l-58 -10 -30 36 c-28 33 -35 36 -83 36 -29 0 -59 -6 -69 -13
-29 -25 -53 -92 -53 -152 0 -103 42 -166 113 -167 39 0 97 33 97 56 0 6 8 22
18 34 17 21 21 22 58 10 106 -34 104 -33 80 -92 -18 -42 -59 -84 -108 -109
-55 -28 -217 -27 -282 1 -186 83 -210 407 -37 517 57 37 86 42 202 39 80 -2
103 -7 134 -26z m647 4 c115 -64 164 -181 138 -327 -14 -84 -20 -96 -67 -148
-55 -61 -107 -79 -225 -79 -108 0 -143 10 -210 62 -20 15 -47 47 -59 71 -21
37 -24 56 -24 158 l0 116 35 51 c36 54 102 103 154 114 59 13 222 1 258 -18z
m483 -11 c3 -16 12 -50 19 -78 8 -27 22 -79 31 -115 10 -36 19 -71 21 -77 8
-28 20 -10 37 55 10 37 24 90 32 117 7 28 17 66 22 85 l9 35 114 3 c63 1 116
-1 119 -7 3 -5 4 -132 1 -283 l-5 -273 -44 -3 c-25 -2 -55 -1 -68 3 l-23 5 -1
188 c0 145 -3 180 -11 157 -6 -16 -17 -39 -24 -50 -8 -11 -14 -28 -14 -39 0
-11 -6 -42 -14 -70 -8 -28 -23 -82 -34 -121 l-19 -70 -57 -3 c-62 -3 -86 8
-86 40 0 11 -7 41 -15 67 -14 47 -40 145 -50 194 -3 15 -12 27 -20 27 -13 0
-15 -25 -15 -153 0 -106 -4 -157 -12 -165 -7 -7 -36 -12 -65 -12 -41 0 -54 4
-63 19 -11 22 -15 533 -3 544 3 4 57 7 119 7 l114 0 5 -27z m928 10 c38 -19
52 -35 77 -88 24 -49 25 -91 4 -147 -24 -65 -71 -102 -146 -116 -35 -7 -79
-12 -99 -11 -54 3 -59 -4 -59 -90 0 -46 -5 -82 -12 -89 -12 -12 -124 -17 -152
-6 -14 5 -16 39 -16 278 0 150 3 276 7 279 3 4 87 7 185 7 147 0 185 -3 211
-17z m500 -23 c10 -22 24 -58 32 -80 8 -22 22 -58 30 -80 8 -22 22 -58 30 -80
8 -22 22 -59 31 -82 9 -24 23 -61 31 -83 8 -22 22 -55 30 -74 8 -20 10 -38 5
-43 -5 -5 -44 -8 -88 -6 l-79 3 -24 48 -23 47 -94 0 -94 0 -22 -47 -23 -48
-74 -3 c-41 -2 -78 1 -83 6 -10 10 -1 39 42 152 12 30 25 66 30 80 5 14 18 50
30 80 12 30 25 66 30 80 5 14 18 50 30 80 12 30 24 63 27 73 5 15 19 17 108
17 l102 0 16 -40z m707 -20 l0 -59 -87 -3 -88 -3 -5 -220 -5 -220 -85 0 -85 0
-5 220 -5 220 -87 3 -88 3 0 59 0 60 270 0 270 0 0 -60z m271 48 c2 -7 2 -134
-1 -283 l-5 -270 -75 -3 c-62 -2 -77 0 -87 14 -10 13 -13 83 -13 279 0 144 3
265 7 268 12 13 171 8 174 -5z m586 -17 c73 -53 80 -151 14 -209 l-26 -23 45
-39 c45 -38 45 -39 45 -103 0 -129 -54 -158 -307 -165 -92 -2 -179 -1 -193 2
l-25 6 0 274 c0 150 3 276 7 279 3 4 95 7 203 7 l197 0 40 -29z m371 -253 l2
-278 -23 -5 c-12 -3 -52 -5 -87 -3 l-65 3 -3 283 -2 283 87 -3 88 -3 3 -277z
m302 77 l0 -205 27 -11 c14 -5 76 -9 136 -8 83 1 112 -2 118 -12 13 -21 11
-103 -3 -117 -9 -9 -72 -12 -223 -12 -151 0 -214 3 -223 12 -9 9 -12 85 -12
278 0 147 3 270 7 273 3 4 44 7 90 7 l83 0 0 -205z m560 193 c1 -7 1 -132 0
-278 -1 -194 -4 -266 -13 -272 -7 -4 -42 -8 -79 -8 -56 0 -69 3 -78 19 -11 22
-15 533 -3 544 3 4 44 7 90 7 59 0 83 -4 83 -12z m635 -48 l0 -55 -87 -3 c-60
-2 -88 -7 -89 -15 -1 -7 -1 -95 1 -197 1 -112 -3 -196 -9 -213 -11 -28 -12
-28 -88 -25 l-78 3 -3 209 c-1 130 -6 214 -13 222 -7 8 -41 14 -92 16 l-82 3
-3 44 c-6 76 -23 72 275 69 l268 -3 0 -55z m282 -22 c49 -83 75 -104 87 -71 3
10 15 32 26 48 11 17 24 39 30 50 25 52 33 55 129 55 61 0 91 -4 91 -11 0 -6
-21 -41 -47 -78 -26 -36 -62 -86 -78 -111 -17 -25 -43 -63 -58 -84 -25 -36
-27 -46 -27 -150 0 -74 -4 -116 -12 -124 -13 -13 -136 -17 -154 -4 -8 4 -13
52 -15 128 -3 95 -8 126 -20 140 -9 11 -52 71 -94 134 -42 63 -83 122 -91 131
-8 9 -11 19 -7 22 3 4 48 7 98 7 l93 0 49 -82z m-1012 -745 c48 -27 93 -67
120 -108 20 -30 20 -47 20 -1520 l0 -1490 -23 -36 c-33 -53 -70 -80 -177 -125
-11 -5 -396 -11 -855 -14 l-835 -5 -3 -229 c-1 -133 2 -234 7 -239 5 -5 100
-9 219 -8 l210 2 21 -27 c11 -15 21 -35 21 -45 0 -10 6 -33 14 -51 8 -18 22
-60 31 -93 10 -33 22 -71 28 -85 5 -14 13 -38 17 -55 10 -35 27 -85 48 -137
29 -74 114 -68 -993 -68 -913 0 -996 1 -1002 16 -6 15 9 71 42 164 29 82 37
107 45 135 11 39 29 91 46 133 8 18 14 41 14 51 0 9 11 28 24 40 23 21 29 22
227 21 112 -1 210 -1 217 -1 9 1 12 56 12 241 l0 239 -827 3 -828 3 -56 27
c-59 28 -104 66 -132 110 -16 25 -17 136 -17 1523 l0 1495 24 38 c31 49 99 96
161 112 17 5 955 7 2085 7 l2055 -2 40 -22z m-3767 -4660 l3 -93 -178 -2 -178
-3 -3 -64 c-2 -45 1 -67 10 -73 7 -4 73 -8 146 -7 73 1 136 -1 139 -4 9 -9 6
-138 -4 -148 -4 -4 -71 -10 -148 -11 l-140 -3 -5 -165 -5 -165 -115 0 -115 0
-3 414 c-1 242 2 417 7 420 5 3 139 4 298 1 l288 -5 3 -92z m750 64 c23 -15
54 -45 69 -68 23 -35 27 -51 27 -119 1 -93 -23 -148 -80 -190 -20 -14 -45 -33
-57 -42 l-22 -17 42 -36 c32 -27 58 -68 108 -168 36 -73 65 -140 65 -150 0
-16 -11 -17 -131 -15 l-132 3 -78 153 c-82 161 -108 193 -149 189 l-25 -2 -5
-170 -5 -170 -110 -3 c-95 -2 -111 0 -122 15 -10 13 -13 109 -13 409 0 372 1
394 19 406 14 10 76 12 288 8 l269 -5 42 -28z m492 -377 c0 -219 -3 -405 -6
-414 -9 -24 -229 -24 -238 0 -9 23 -7 797 2 811 9 14 197 23 225 10 16 -7 17
-36 17 -407z m814 414 c13 -5 16 -24 16 -100 l0 -94 -188 0 c-219 0 -225 -2
-220 -70 l3 -45 185 -5 185 -5 3 -82 3 -83 -171 0 c-99 0 -179 -4 -191 -10
-16 -9 -19 -22 -19 -75 0 -36 1 -66 3 -67 1 -1 97 -4 212 -7 l210 -6 3 -77 c5
-128 33 -118 -338 -118 -305 0 -320 1 -330 19 -12 23 -14 789 -2 808 6 10 84
13 312 16 168 1 306 3 307 5 1 1 8 -1 17 -4z m917 -15 c10 -16 12 -771 3 -806
-6 -22 -11 -23 -111 -23 -101 0 -105 1 -130 28 -14 15 -29 36 -34 47 -5 11
-32 54 -59 95 -28 41 -53 82 -57 90 -4 8 -25 41 -48 75 -23 33 -44 68 -48 78
-3 9 -11 17 -17 17 -13 0 -13 -3 -10 -211 1 -119 -2 -183 -9 -198 -11 -20 -18
-22 -119 -19 l-107 3 0 415 0 415 114 0 114 0 33 -45 c18 -25 33 -48 33 -52 1
-4 20 -35 44 -70 50 -76 55 -84 107 -168 21 -36 49 -71 60 -78 20 -12 20 -11
20 197 0 172 3 211 14 218 26 14 197 7 207 -8z m735 -34 c111 -77 153 -171
161 -357 7 -162 -19 -247 -102 -336 -78 -85 -149 -102 -421 -102 -166 0 -193
2 -198 16 -3 9 -6 193 -6 409 0 312 3 396 13 407 11 10 63 12 254 8 l241 -5
58 -40z"/>
<path d="M4107 34490 c-42 -13 -63 -43 -76 -110 -16 -78 4 -162 46 -196 41
-34 104 -32 142 4 61 55 65 228 7 280 -25 23 -81 33 -119 22z"/>
<path d="M5497 34483 c-4 -3 -7 -30 -7 -59 0 -47 2 -52 25 -58 31 -8 74 2 98
22 43 38 0 102 -69 102 -23 0 -44 -3 -47 -7z"/>
<path d="M6086 34439 c-2 -8 -14 -42 -25 -77 -12 -35 -19 -67 -16 -73 4 -5 28
-9 56 -9 58 0 58 2 28 92 -24 70 -36 89 -43 67z"/>
<path d="M7517 34483 c-9 -8 -9 -66 -1 -87 8 -21 92 -22 122 0 27 18 29 55 4
77 -19 17 -111 24 -125 10z"/>
<path d="M7517 34273 c-9 -8 -9 -66 -1 -87 5 -12 20 -16 63 -16 65 0 101 19
101 55 0 36 -36 55 -101 55 -30 0 -59 -3 -62 -7z"/>
<path d="M4862 33532 c-10 -7 -12 -290 -10 -1383 l3 -1374 1949 -3 c1432 -1
1952 1 1962 9 12 10 14 240 14 1375 0 1338 0 1363 -19 1374 -24 12 -3879 14
-3899 2z"/>
<path d="M5542 29048 c-17 -17 -15 -130 2 -153 11 -16 21 -17 72 -11 32 4 75
14 94 24 33 16 35 20 35 66 0 45 -2 50 -35 67 -40 22 -149 26 -168 7z"/>
<path d="M8544 29017 c-2 -7 -3 -107 -2 -222 l3 -210 60 -3 c105 -5 158 50
171 180 9 87 -15 183 -56 220 -45 42 -164 66 -176 35z"/>
<path d="M184 34826 c-76 -19 -134 -65 -168 -135 -14 -29 -16 -77 -16 -346 0
-339 2 -351 57 -411 15 -17 46 -41 68 -55 l40 -24 470 -3 c258 -2 480 0 492 3
l23 5 0 480 c0 464 -1 480 -19 490 -30 15 -881 12 -947 -4z"/>
<path d="M12341 34826 c-8 -9 -10 -147 -9 -492 l3 -479 491 0 490 0 44 29 c58
38 87 71 110 124 18 41 20 68 20 334 0 251 -2 295 -17 326 -42 92 -102 141
-191 161 -35 7 -203 11 -491 11 -358 0 -441 -2 -450 -14z"/>
<path d="M233 33478 c-112 -9 -168 -46 -220 -147 -20 -36 -18 -636 1 -682 19
-45 66 -96 113 -122 38 -22 43 -22 528 -22 l490 0 3 479 c1 310 -1 483 -8 490
-11 11 -776 15 -907 4z"/>
<path d="M12349 33478 c-19 -7 -19 -19 -17 -490 l3 -483 490 0 490 0 40 24
c53 33 92 76 116 130 17 40 19 68 19 331 0 253 -2 293 -17 327 -42 92 -102
144 -183 158 -57 10 -915 12 -941 3z"/>
<path d="M170 32121 c-65 -16 -128 -74 -158 -144 -17 -39 -17 -635 0 -674 21
-49 67 -100 111 -125 l42 -23 490 0 490 0 0 485 0 485 -475 1 c-261 1 -486 -1
-500 -5z"/>
<path d="M12335 32118 c-3 -7 -4 -227 -3 -488 l3 -475 490 0 c485 0 490 0 528
22 50 28 93 77 118 132 17 40 19 68 19 331 0 253 -2 293 -17 327 -28 60 -62
102 -107 131 l-41 27 -493 3 c-396 2 -493 0 -497 -10z"/>
<path d="M175 30771 c-67 -17 -133 -74 -161 -140 -19 -45 -21 -635 -2 -678 21
-47 60 -94 103 -122 l40 -26 495 0 495 0 0 485 0 485 -470 2 c-259 0 -483 -2
-500 -6z"/>
<path d="M12335 30768 c-3 -7 -4 -227 -3 -488 l3 -475 495 0 495 0 41 27 c45
29 79 71 107 131 15 34 17 74 17 327 0 263 -2 291 -19 331 -25 55 -68 104
-118 132 -37 22 -46 22 -526 25 -392 2 -488 0 -492 -10z"/>
<path d="M175 29421 c-63 -15 -135 -78 -161 -140 -19 -45 -21 -635 -2 -678 37
-84 102 -135 193 -152 88 -16 906 -15 928 2 16 11 17 50 15 492 l-3 480 -470
2 c-259 0 -484 -2 -500 -6z"/>
<path d="M12337 29424 c-4 -4 -7 -222 -7 -485 0 -463 1 -479 19 -489 28 -14
863 -14 933 1 91 20 148 68 191 162 15 34 17 74 17 327 0 263 -2 291 -19 331
-24 54 -63 97 -116 130 l-40 24 -485 3 c-267 2 -489 0 -493 -4z"/>
<path d="M3550 26031 c-14 -28 -14 -863 1 -933 20 -91 68 -148 162 -190 34
-16 74 -18 327 -18 264 0 291 2 332 20 53 23 86 52 124 110 l29 44 0 490 0
491 -482 3 c-469 2 -482 2 -493 -17z"/>
<path d="M4902 26028 c-10 -30 -8 -880 3 -938 14 -81 66 -141 158 -182 34 -16
74 -18 327 -18 263 0 291 2 331 19 54 24 97 63 130 116 l24 40 0 490 0 490
-483 3 -482 2 -8 -22z"/>
<path d="M6254 26037 c-2 -7 -3 -229 -2 -493 3 -471 3 -480 25 -517 28 -50 77
-93 132 -118 40 -17 68 -19 331 -19 263 0 291 2 331 19 55 25 104 68 132 118
22 38 22 43 22 528 l0 490 -483 3 c-394 2 -483 0 -488 -11z"/>
<path d="M7604 26037 c-3 -8 -4 -229 -2 -493 l3 -479 24 -40 c33 -53 76 -92
130 -116 40 -17 68 -19 331 -19 253 0 293 2 327 18 94 42 146 103 159 188 10
65 12 903 2 932 l-8 22 -480 0 c-393 0 -482 -2 -486 -13z"/>
<path d="M8954 26037 c-3 -8 -4 -230 -2 -494 l3 -479 29 -44 c38 -58 71 -87
124 -110 41 -18 68 -20 332 -20 253 0 293 2 327 18 94 42 142 99 162 190 15
70 15 905 1 933 -10 18 -26 19 -491 19 -392 0 -481 -2 -485 -13z"/>
</g>
</svg>
