<svg xmlns:xlink="http://www.w3.org/1999/xlink" xmlns="http://www.w3.org/2000/svg" width="435.6000061035156" height="435.6000061035156" viewBox="0 0 312.5 312.5" class="css-1j8o68f"><defs id="SvgjsDefs3108"></defs><g id="SvgjsG3109" featurekey="rootContainer" transform="matrix(1.5902661085128784,0,0,1.5902661085128784,0,0)" fill="#111111"><path xmlns="http://www.w3.org/2000/svg" d="M98.254 0C44.077 0 0 44.076 0 98.254s44.077 98.254 98.254 98.254c54.177 0 98.254-44.076 98.254-98.254S152.431 0 98.254 0zm0 195.508C44.628 195.508 1 151.88 1 98.254S44.628 1 98.254 1c53.626 0 97.254 43.628 97.254 97.254s-43.628 97.254-97.254 97.254z" fill="#111111"></path><path xmlns="http://www.w3.org/2000/svg" d="M98.254 5.453c-51.171 0-92.801 41.63-92.801 92.801s41.63 92.801 92.801 92.801 92.802-41.63 92.802-92.801S149.425 5.453 98.254 5.453z" fill="#111111"></path></g><g id="SvgjsG3110" featurekey="symbolFeature-0" transform="matrix(2.310559034347534,0,0,2.310559034347534,81.82608695652173,43.20496894409938)" fill="#FFFFFF"><metadata xmlns="http://www.w3.org/2000/svg" fill="#FFFFFF"><sfw xmlns="http://ns.adobe.com/SaveForWeb/1.0/" fill="#FFFFFF"><slices fill="#FFFFFF"><slicesourcebounds y="-8160" x="-8165" width="16389" height="16384" bottomleftorigin="true" fill="#FFFFFF"></slicesourcebounds></slices></sfw></metadata><g xmlns="http://www.w3.org/2000/svg" fill="#FFFFFF"><g fill="#FFFFFF"><path d="M56,9H8c-0.552,0-1,0.448-1,1v36c0,0.553,0.448,1,1,1h23v6h-9c-0.552,0-1,0.447-1,1s0.448,1,1,1h20c0.553,0,1-0.447,1-1    s-0.447-1-1-1h-9v-6h23c0.553,0,1-0.447,1-1V10C57,9.448,56.553,9,56,9z M55,45H9V11h46V45z" fill="#FFFFFF"></path><path d="M23.293,32.707C23.488,32.902,23.744,33,24,33s0.512-0.098,0.707-0.293c0.391-0.391,0.391-1.023,0-1.414L21.414,28    l3.293-3.293c0.391-0.391,0.391-1.023,0-1.414s-1.023-0.391-1.414,0l-4,4c-0.391,0.391-0.391,1.023,0,1.414L23.293,32.707z" fill="#FFFFFF"></path><path d="M39.293,32.707C39.488,32.902,39.744,33,40,33s0.512-0.098,0.707-0.293l4-4c0.391-0.391,0.391-1.023,0-1.414l-4-4    c-0.391-0.391-1.023-0.391-1.414,0s-0.391,1.023,0,1.414L42.586,28l-3.293,3.293C38.902,31.684,38.902,32.316,39.293,32.707z" fill="#FFFFFF"></path><path d="M29.757,36.97C29.839,36.99,29.92,37,30.001,37c0.448,0,0.855-0.303,0.969-0.758l4-16    c0.135-0.536-0.191-1.079-0.728-1.213c-0.535-0.138-1.079,0.192-1.212,0.728l-4,16C28.896,36.293,29.222,36.836,29.757,36.97z" fill="#FFFFFF"></path></g></g></g><g id="SvgjsG3111" featurekey="nameFeature-0" transform="matrix(0.6702103614807129,0,0,0.6702103614807129,54.659150346548756,187.95760701471056)" fill="#FFFFFF"><path d="M15.328 32.9376 l0.000039062 -3.3163 l7.5968 0 l0 5.0944 l-5.2848 5.2844 l-10.355 0 l-5.2844 -5.2844 l0 -17.431 l5.2844 -5.2844 l10.355 0 l5.2848 5.2844 l-0.0005078 2.887 l-7.5964 2.5177 l0 -3.6266 l-1.0742 -1.0747 l-3.583 0 l-1.0742 1.0747 l0 13.875 l1.0742 1.0747 l3.583 0 z M57.297000000000004 40 l-9.3001 0 l0.8526 -2.024 l-1.2963 -5.1364 l-3.6014 1.2174 l-3.6014 -1.2174 l-1.2963 5.1364 l0.8526 2.024 l-9.247 0 l1.5124 -2.8885 l5.8272 -23.087 l-0.8526 -2.024 l13.611 0 l-0.8526 2.024 l5.7776 22.892 z M43.952000000000005 27.707 l2.1246 -0.71828 l-2.1246 -8.4172 l-2.1241 8.4172 z M82.162 23.13 l3.8021 3.8016 l0 9.5157 l-3.5523 3.5523 l-14.955 0 l-2.4176 -7.3808 l4.2392 1.393 l8.0142 0 l1.0742 -1.0747 l0 -2.3854 l-1.3042 -1.3047 l-7.8768 -1.4019 l-0.0089064 -0.0034766 l-4.1376 -4.138 l0 -8.1515 l3.5523 -3.5523 l13.962 0 l2.4176 7.3808 l-4.24 -1.393 l-7.0218 0 l-1.0742 1.0747 l0 1.447 l1.0742 1.0742 z M120.33700000000002 40 l-9.3001 0 l0.8526 -2.024 l-1.2963 -5.1364 l-3.6014 1.2174 l-3.6014 -1.2174 l-1.2963 5.1364 l0.8526 2.024 l-9.247 0 l1.5124 -2.8885 l5.8272 -23.087 l-0.8526 -2.024 l13.611 0 l-0.8526 2.024 l5.7776 22.892 z M106.99200000000002 27.707 l2.1246 -0.71828 l-2.1246 -8.4172 l-2.1241 8.4172 z M162.36900000000003 12 l5.2844 5.2844 l0 17.431 l-5.2844 5.2844 l-16.989 0 l1.3632 -3.237 l0 -21.526 l-1.3632 -3.237 l16.989 0 z M160.05700000000002 32.9376 l0 -13.875 l-1.0742 -1.0747 l-4.6434 0 l0 16.024 l4.6434 0 z M191.10600000000002 34.0124 l4.5852 -2.3686 l-2.7631 8.3564 l-17.528 0 l1.3632 -3.237 l0 -21.526 l-1.3632 -3.237 l16.762 0 l2.4181 7.3808 l-4.24 -1.393 l-5.9803 0 l0 4.451 l3.6524 0 l2.4394 -0.80156 l0 7.5914 l-2.4394 -0.80208 l-3.6524 0 l0 5.5857 l6.7462 0 z M236.42600000000004 34.0124 l4.5852 -2.3686 l-2.7631 8.3564 l-17.528 0 l1.3632 -3.237 l0 -21.526 l-1.3632 -3.237 l16.762 0 l2.4181 7.3808 l-4.24 -1.393 l-5.9803 0 l0 4.451 l3.6524 0 l2.4394 -0.80156 l0 7.5914 l-2.4394 -0.80208 l-3.6524 0 l0 5.5857 l6.7462 0 z M266.47400000000005 34.0124 l4.2404 -1.3935 l-2.4181 7.3812 l-17.572 0 l-1.9843 -5.9884 l0.00050781 0 l12.558 -16.024 l-6.5821 0 l-4.2404 1.393 l2.4181 -7.3808 l14.786 0 l1.9843 5.9884 l-0.00050781 0 l-12.556 16.024 z M296.17400000000004 34.0124 l4.2404 -1.3935 l-2.4181 7.3812 l-17.572 0 l-1.9843 -5.9884 l0.00050781 0 l12.558 -16.024 l-6.5821 0 l-4.2404 1.393 l2.4181 -7.3808 l14.786 0 l1.9843 5.9884 l-0.00050781 0 l-12.556 16.024 z" fill="#FFFFFF"></path></g><g id="SvgjsG3112" featurekey="sloganFeature-0" transform="matrix(0.5998905301094055,0,0,0.5998905301094055,112.64424748940971,224.66879058872257)" fill="#FFFFFF"><path d="M6.18 7.32 c1.82 0 3.76 0.7 3.76 2.76 c0 0.48 -0.32 0.7 -0.66 0.7 s-0.7 -0.24 -0.7 -0.7 c0 -0.16 -0.1 -1.46 -2.4 -1.46 c-1.82 0 -2.62 0.72 -2.62 2.44 l0 4.82 c0 1.74 0.98 2.28 2.62 2.28 c1.66 0 2.58 -0.68 2.58 -2.3 c0 -0.46 0.34 -0.68 0.66 -0.68 c0.34 0 0.66 0.22 0.66 0.68 c0 2.7 -1.5 3.6 -3.9 3.6 c-2.6 0 -3.92 -0.96 -3.92 -3.58 l0 -4.82 c0 -2.84 1.42 -3.74 3.92 -3.74 z M19.182000000000002 18.86 l-0.78 -2.54 l-3.72 0 l-0.74 2.5 c-0.26 0.86 -1.58 0.6 -1.3 -0.28 c1.04 -3.5 2.06 -7.06 3.08 -10.6 c0.12 -0.38 0.44 -0.58 0.76 -0.58 c0.3 0 0.62 0.2 0.74 0.58 l3.18 10.6 c0.22 0.76 -0.96 1.18 -1.22 0.32 z M16.522 10.06 l-1.44 4.92 l2.94 0 c-0.5 -1.68 -0.96 -3.12 -1.5 -4.92 z M23.064 17.68 c-0.44 -0.82 0.68 -1.42 1.2 -0.6 c0.26 0.42 1.04 1.14 2.28 1.14 c0.52 0 1.82 -0.38 2 -1.86 c0.12 -0.9 -0.74 -1.78 -2.22 -2.52 c-2.08 -0.98 -3.66 -1.84 -3.66 -3.56 c0 -2.04 1.72 -3 3.56 -3 c1.66 0 2.58 1.02 2.9 1.54 c0.46 0.74 -0.54 1.46 -1.1 0.74 c-0.28 -0.36 -0.82 -0.96 -1.8 -0.96 c-1.1 0 -2.24 0.52 -2.24 1.68 c0 0.92 1.02 1.44 2.54 2.16 c1.78 0.88 3.64 1.74 3.36 4.08 c-0.22 1.84 -1.62 3.02 -3.34 3.02 c-1.3 0 -2.9 -0.7 -3.48 -1.86 z M38.705999999999996 18.86 l-0.78 -2.54 l-3.72 0 l-0.74 2.5 c-0.26 0.86 -1.58 0.6 -1.3 -0.28 c1.04 -3.5 2.06 -7.06 3.08 -10.6 c0.12 -0.38 0.44 -0.58 0.76 -0.58 c0.3 0 0.62 0.2 0.74 0.58 l3.18 10.6 c0.22 0.76 -0.96 1.18 -1.22 0.32 z M36.046 10.06 l-1.44 4.92 l2.94 0 c-0.5 -1.68 -0.96 -3.12 -1.5 -4.92 z M43.108 12.48 l3.16 0 c0.42 0 0.64 0.32 0.64 0.64 c0 0.34 -0.22 0.68 -0.64 0.68 l-3.14 0 c-0.42 0 -0.64 -0.32 -0.64 -0.66 c0 -0.32 0.22 -0.66 0.62 -0.66 z M49.57 18.78 l0 -10.76 c0 -0.54 0.38 -0.66 0.66 -0.66 l3.2 0 c2.64 0 3.94 1.26 3.94 3.74 l0 5.12 c0 1.56 -1.22 3.2 -3.88 3.2 l-3.26 0 c-0.28 0 -0.66 -0.16 -0.66 -0.64 z M56.05 16.22 l0 -5.12 c0 -1.64 -0.88 -2.4 -2.62 -2.4 l-2.54 0 l0 9.42 l2.6 0 c1.22 0 2.56 -0.66 2.56 -1.9 z M60.632 18.7 l0 -10.64 c0 -0.46 0.36 -0.7 0.7 -0.7 l4.6 0 c0.44 0 0.66 0.32 0.66 0.66 s-0.22 0.68 -0.66 0.68 l-3.96 0 l0 3.88 l3.14 0 c0.46 0 0.68 0.32 0.68 0.66 s-0.24 0.7 -0.68 0.7 l-3.14 0 l0 4.14 l3.96 0 c0.42 0 0.64 0.34 0.64 0.66 c0 0.34 -0.22 0.66 -0.64 0.66 l-4.6 0 c-0.34 0 -0.7 -0.12 -0.7 -0.7 z M69.934 12.48 l3.16 0 c0.42 0 0.64 0.32 0.64 0.64 c0 0.34 -0.22 0.68 -0.64 0.68 l-3.14 0 c-0.42 0 -0.64 -0.32 -0.64 -0.66 c0 -0.32 0.22 -0.66 0.62 -0.66 z M76.336 18.7 l0 -10.64 c0 -0.46 0.36 -0.7 0.7 -0.7 l4.6 0 c0.44 0 0.66 0.32 0.66 0.66 s-0.22 0.68 -0.66 0.68 l-3.96 0 l0 3.88 l3.14 0 c0.46 0 0.68 0.32 0.68 0.66 s-0.24 0.7 -0.68 0.7 l-3.14 0 l0 4.14 l3.96 0 c0.42 0 0.64 0.34 0.64 0.66 c0 0.34 -0.22 0.66 -0.64 0.66 l-4.6 0 c-0.34 0 -0.7 -0.12 -0.7 -0.7 z M85.998 7.359999999999999 l5.32 0 c0.66 0 1.18 0.78 0.68 1.64 l-2.4 4.12 c-1.04 1.78 -1.84 3.22 -2.82 4.94 l4.72 0 c0.44 0 0.66 0.34 0.66 0.68 s-0.22 0.66 -0.66 0.66 l-5.46 0 c-0.78 0 -1.06 -0.82 -0.78 -1.32 l5.42 -9.38 l-4.68 0 c-0.44 0 -0.66 -0.34 -0.66 -0.68 c0 -0.32 0.18 -0.66 0.66 -0.66 z M96.3 7.359999999999999 l5.32 0 c0.66 0 1.18 0.78 0.68 1.64 l-2.4 4.12 c-1.04 1.78 -1.84 3.22 -2.82 4.94 l4.72 0 c0.44 0 0.66 0.34 0.66 0.68 s-0.22 0.66 -0.66 0.66 l-5.46 0 c-0.78 0 -1.06 -0.82 -0.78 -1.32 l5.42 -9.38 l-4.68 0 c-0.44 0 -0.66 -0.34 -0.66 -0.68 c0 -0.32 0.18 -0.66 0.66 -0.66 z M106.40199999999999 19.54 c-0.6 0 -1.06 -0.44 -1.06 -1.06 s0.46 -1.06 1.06 -1.06 c0.62 0 1.08 0.44 1.08 1.06 s-0.46 1.06 -1.08 1.06 z M113.98399999999998 7.32 c1.82 0 3.76 0.7 3.76 2.76 c0 0.48 -0.32 0.7 -0.66 0.7 s-0.7 -0.24 -0.7 -0.7 c0 -0.16 -0.1 -1.46 -2.4 -1.46 c-1.82 0 -2.62 0.72 -2.62 2.44 l0 4.82 c0 1.74 0.98 2.28 2.62 2.28 c1.66 0 2.58 -0.68 2.58 -2.3 c0 -0.46 0.34 -0.68 0.66 -0.68 c0.34 0 0.66 0.22 0.66 0.68 c0 2.7 -1.5 3.6 -3.9 3.6 c-2.6 0 -3.92 -0.96 -3.92 -3.58 l0 -4.82 c0 -2.84 1.42 -3.74 3.92 -3.74 z M120.92599999999999 15.86 l0 -4.96 c0 -2.4 1.24 -3.68 3.64 -3.68 l0.52 0 c2.38 0 3.64 1.28 3.64 3.68 l0 4.96 c0 2.2 -1.46 3.64 -3.64 3.64 l-0.52 0 c-2.22 0 -3.64 -1.46 -3.64 -3.64 z M124.56599999999999 18.16 l0.52 0 c1.44 0 2.3 -0.9 2.3 -2.3 l0 -4.96 c0 -1.56 -0.76 -2.36 -2.3 -2.36 l-0.52 0 c-1.52 0 -2.36 0.82 -2.36 2.36 l0 4.96 c0 1.46 0.92 2.3 2.36 2.3 z M140.628 18.76 l0 -8.92 l-3.18 9 c-0.18 0.5 -0.84 0.62 -1.04 0 l-3.08 -9 l0 8.92 c0 0.42 -0.32 0.64 -0.66 0.64 s-0.68 -0.22 -0.68 -0.64 l0 -10.74 c0 -0.38 0.28 -0.66 0.68 -0.66 l0.64 0 c0.44 0 0.68 0.32 0.78 0.62 c0.96 2.86 1.84 5.4 2.82 8.28 l2.9 -8.34 c0.1 -0.28 0.28 -0.56 0.7 -0.56 l0.8 0 c0.58 0 0.66 0.32 0.66 0.64 l0 10.76 c0 0.42 -0.34 0.64 -0.68 0.64 s-0.66 -0.22 -0.66 -0.64 z " fill="#FFFFFF"></path></g></svg>